# 3ds Max Wavefront OBJ Exporter v0.97b - (c)2007 guruware
# File Created: 07.10.2013 19:44:29

mtllib f4.mtl

#
# object cylinder30
#

v  0.0047 -0.0323 -0.0030
v  0.0055 -0.0323 0.0005
v  0.0047 -0.0323 0.0040
v  -0.0008 -0.0323 0.0005
v  -0.0008 -0.0323 -0.0065
v  0.0023 -0.0323 -0.0055
v  -0.0064 -0.0323 -0.0030
v  -0.0040 -0.0323 -0.0055
v  -0.0064 -0.0323 0.0040
v  -0.0072 -0.0323 0.0005
v  -0.0008 -0.0323 0.0074
v  -0.0040 -0.0323 0.0065
v  0.0023 -0.0323 0.0065
v  0.0055 0.0473 0.0005
v  -0.0008 0.0473 0.0005
v  0.0023 0.0473 0.0065
v  0.0047 0.0473 0.0040
v  0.0047 0.0473 -0.0030
v  0.0023 0.0473 -0.0055
v  -0.0008 0.0473 -0.0065
v  -0.0040 0.0473 -0.0055
v  -0.0064 0.0473 -0.0030
v  -0.0072 0.0473 0.0005
v  -0.0064 0.0473 0.0040
v  -0.0040 0.0473 0.0065
v  -0.0008 0.0473 0.0074
# 26 vertices

vn 0.6675 -0.6517 -0.3602
vn 0.7511 -0.6602 0.0000
vn 0.6675 -0.6517 0.3602
vn 0.0000 -1.0000 -0.0000
vn 0.0035 -0.6449 -0.7643
vn 0.4002 -0.6560 -0.6399
vn -0.6675 -0.6517 -0.3602
vn -0.3977 -0.6552 -0.6424
vn -0.6675 -0.6517 0.3602
vn -0.7511 -0.6602 0.0000
vn 0.0032 -0.6502 0.7598
vn -0.3896 -0.6525 0.6500
vn 0.3920 -0.6533 0.6478
vn 0.7511 0.6602 0.0000
vn 0.0000 1.0000 -0.0000
vn 0.3920 0.6533 0.6478
vn 0.6675 0.6517 0.3602
vn 0.6675 0.6517 -0.3602
vn 0.4002 0.6560 -0.6399
vn 0.0035 0.6449 -0.7643
vn -0.3977 0.6552 -0.6424
vn -0.6675 0.6517 -0.3602
vn -0.7511 0.6602 0.0000
vn -0.6675 0.6517 0.3602
vn -0.3896 0.6525 0.6500
vn 0.0032 0.6502 0.7598
# 26 vertex normals

g cylinder30
usemtl ac3dmat2
s 1
f 1//1 2//2 3//3 4//4 
f 5//5 6//6 1//1 4//4 
f 7//7 8//8 5//5 4//4 
f 9//9 10//10 7//7 4//4 
f 11//11 12//12 9//9 4//4 
f 3//3 13//13 11//11 4//4 
f 14//14 15//15 16//16 17//17 
f 14//14 18//18 19//19 15//15 
f 19//19 20//20 21//21 15//15 
f 21//21 22//22 23//23 15//15 
f 23//23 24//24 25//25 15//15 
f 16//16 15//15 25//25 26//26 
f 2//2 14//14 17//17 3//3 
f 14//14 2//2 1//1 18//18 
f 6//6 19//19 18//18 1//1 
f 5//5 20//20 19//19 6//6 
f 8//8 21//21 20//20 5//5 
f 21//21 8//8 7//7 22//22 
f 10//10 23//23 22//22 7//7 
f 9//9 24//24 23//23 10//10 
f 12//12 25//25 24//24 9//9 
f 25//25 12//12 11//11 26//26 
f 13//13 16//16 26//26 11//11 
f 3//3 17//17 16//16 13//13 
# 24 polygons

#
# object cylinder29
#

v  0.1045 -0.0323 0.1043
v  0.1045 0.0462 0.1043
v  0.1022 0.0462 0.1069
v  0.1022 -0.0323 0.1069
v  0.0990 0.0462 0.1078
v  0.0990 -0.0323 0.1078
v  0.0958 0.0462 0.1069
v  0.0958 -0.0323 0.1069
v  0.0935 0.0462 0.1043
v  0.0935 -0.0323 0.1043
v  0.0926 -0.0323 0.1009
v  0.0926 0.0462 0.1009
v  0.0935 0.0462 0.0974
v  0.0935 -0.0323 0.0974
v  0.0958 -0.0323 0.0948
v  0.0958 0.0462 0.0948
v  0.0990 0.0462 0.0939
v  0.0990 -0.0323 0.0939
v  0.1022 -0.0323 0.0948
v  0.1022 0.0462 0.0948
v  0.1045 0.0462 0.0974
v  0.1045 -0.0323 0.0974
v  0.1054 -0.0323 0.1009
v  0.1054 0.0462 0.1009
v  0.0990 0.0462 0.1009
v  0.0990 -0.0323 0.1009
# 26 vertices

vn 0.6633 -0.6587 0.3551
vn 0.6633 0.6587 0.3551
vn 0.4045 0.6487 0.6446
vn 0.4045 -0.6487 0.6446
vn -0.0000 0.6509 0.7591
vn -0.0000 -0.6509 0.7591
vn -0.4045 0.6487 0.6446
vn -0.4045 -0.6487 0.6446
vn -0.6633 0.6587 0.3551
vn -0.6633 -0.6587 0.3551
vn -0.7561 -0.6544 0.0027
vn -0.7561 0.6544 0.0027
vn -0.6651 0.6580 -0.3530
vn -0.6651 -0.6580 -0.3530
vn -0.4045 -0.6487 -0.6446
vn -0.4045 0.6487 -0.6446
vn -0.0000 0.6509 -0.7591
vn -0.0000 -0.6509 -0.7591
vn 0.4045 -0.6487 -0.6446
vn 0.4045 0.6487 -0.6446
vn 0.6651 0.6580 -0.3530
vn 0.6651 -0.6580 -0.3530
vn 0.7561 -0.6544 0.0027
vn 0.7561 0.6544 0.0027
vn 0.0000 1.0000 -0.0000
vn 0.0000 -1.0000 -0.0000
# 26 vertex normals

g cylinder29
usemtl ac3dmat2
s 1
f 27//27 28//28 29//29 30//30 
f 30//30 29//29 31//31 32//32 
f 32//32 31//31 33//33 34//34 
f 34//34 33//33 35//35 36//36 
f 37//37 36//36 35//35 38//38 
f 38//38 39//39 40//40 37//37 
f 41//41 40//40 39//39 42//42 
f 42//42 43//43 44//44 41//41 
f 45//45 44//44 43//43 46//46 
f 45//45 46//46 47//47 48//48 
f 49//49 48//48 47//47 50//50 
f 49//49 50//50 28//28 27//27 
f 28//28 51//51 31//31 29//29 
f 35//35 33//33 31//31 51//51 
f 38//38 35//35 51//51 39//39 
f 43//43 42//42 39//39 51//51 
f 47//47 46//46 43//43 51//51 
f 51//51 28//28 50//50 47//47 
f 30//30 52//52 49//49 27//27 
f 34//34 52//52 30//30 32//32 
f 34//34 36//36 37//37 52//52 
f 40//40 41//41 52//52 37//37 
f 45//45 52//52 41//41 44//44 
f 45//45 48//48 49//49 52//52 
# 24 polygons

#
# object cylinder17
#

v  -0.0089 0.0216 -0.0055
v  -0.0103 0.0216 0.0000
v  -0.0089 0.0216 0.0054
v  0.0000 0.0216 0.0000
v  0.0000 0.0216 -0.0109
v  -0.0051 0.0216 -0.0094
v  0.0089 0.0216 -0.0055
v  0.0051 0.0216 -0.0094
v  0.0089 0.0216 0.0054
v  0.0103 0.0216 0.0000
v  0.0000 0.0216 0.0108
v  0.0051 0.0216 0.0094
v  -0.0051 0.0216 0.0094
v  -0.0103 0.0116 0.0000
v  0.0000 0.0116 0.0000
v  -0.0051 0.0116 0.0094
v  -0.0089 0.0116 0.0054
v  -0.0089 0.0116 -0.0055
v  -0.0051 0.0116 -0.0094
v  0.0000 0.0116 -0.0109
v  0.0051 0.0116 -0.0094
v  0.0089 0.0116 -0.0055
v  0.0103 0.0116 0.0000
v  0.0089 0.0116 0.0054
v  0.0051 0.0116 0.0094
v  0.0000 0.0116 0.0108
# 26 vertices

vn -0.6605 0.6533 -0.3702
vn -0.7555 0.6552 0.0017
vn -0.6608 0.6549 0.3668
vn 0.0000 1.0000 -0.0000
vn 0.0000 0.6488 -0.7610
vn -0.3903 0.6543 -0.6478
vn 0.6605 0.6533 -0.3702
vn 0.3903 0.6543 -0.6478
vn 0.6608 0.6549 0.3668
vn 0.7555 0.6552 0.0017
vn 0.0000 0.6521 0.7581
vn 0.3897 0.6514 0.6510
vn -0.3897 0.6514 0.6510
vn -0.7555 -0.6552 0.0017
vn 0.0000 -1.0000 -0.0000
vn -0.3897 -0.6514 0.6510
vn -0.6608 -0.6549 0.3668
vn -0.6605 -0.6533 -0.3702
vn -0.3903 -0.6543 -0.6478
vn -0.0000 -0.6488 -0.7610
vn 0.3903 -0.6543 -0.6478
vn 0.6605 -0.6533 -0.3702
vn 0.7555 -0.6552 0.0017
vn 0.6608 -0.6549 0.3668
vn 0.3897 -0.6514 0.6510
vn -0.0000 -0.6521 0.7581
# 26 vertex normals

g cylinder17
usemtl ac3dmat2
s 1
f 53//53 54//54 55//55 56//56 
f 57//57 58//58 53//53 56//56 
f 59//59 60//60 57//57 56//56 
f 61//61 62//62 59//59 56//56 
f 63//63 64//64 61//61 56//56 
f 55//55 65//65 63//63 56//56 
f 66//66 67//67 68//68 69//69 
f 66//66 70//70 71//71 67//67 
f 71//71 72//72 73//73 67//67 
f 73//73 74//74 75//75 67//67 
f 75//75 76//76 77//77 67//67 
f 68//68 67//67 77//77 78//78 
f 69//69 55//55 54//54 66//66 
f 66//66 54//54 53//53 70//70 
f 70//70 53//53 58//58 71//71 
f 71//71 58//58 57//57 72//72 
f 72//72 57//57 60//60 73//73 
f 73//73 60//60 59//59 74//74 
f 74//74 59//59 62//62 75//75 
f 75//75 62//62 61//61 76//76 
f 76//76 61//61 64//64 77//77 
f 63//63 78//78 77//77 64//64 
f 78//78 63//63 65//65 68//68 
f 68//68 65//65 55//55 69//69 
# 24 polygons

#
# object block00020
#

v  0.1091 -0.0271 0.0956
v  0.0753 -0.0271 0.0618
v  0.0753 -0.0230 0.0618
v  0.1091 -0.0230 0.0956
v  0.0907 -0.0271 0.1140
v  0.0907 -0.0230 0.1140
v  0.0569 -0.0230 0.0802
v  0.0569 -0.0271 0.0802
v  0.0342 -0.0271 0.0206
v  0.0342 -0.0230 0.0206
v  0.0158 -0.0230 0.0390
v  0.0158 -0.0271 0.0390
v  0.0000 -0.0271 -0.0136
v  0.0000 -0.0230 -0.0136
v  -0.0184 -0.0230 0.0048
v  -0.0184 -0.0271 0.0048
v  0.1091 -0.0189 0.0956
v  0.0753 -0.0189 0.0618
v  0.0907 -0.0189 0.1140
v  0.0569 -0.0189 0.0802
v  0.0342 -0.0189 0.0206
v  0.0158 -0.0189 0.0390
v  0.0000 -0.0189 -0.0136
v  -0.0184 -0.0189 0.0048
v  0.0753 -0.0148 0.0618
v  0.1091 -0.0148 0.0956
v  0.0907 -0.0148 0.1140
v  0.0569 -0.0148 0.0802
v  0.0342 -0.0148 0.0206
v  0.0158 -0.0148 0.0390
v  0.0000 -0.0148 -0.0136
v  -0.0184 -0.0148 0.0048
v  0.1103 -0.0271 0.1090
v  0.0692 -0.0271 0.0679
v  0.1103 -0.0148 0.1090
v  0.0692 -0.0148 0.0679
v  0.0631 -0.0271 0.0740
v  0.1042 -0.0271 0.1151
v  0.0631 -0.0148 0.0740
v  0.1042 -0.0148 0.1151
v  0.0281 -0.0271 0.0268
v  0.0281 -0.0148 0.0268
v  0.0219 -0.0271 0.0329
v  0.0219 -0.0148 0.0329
v  -0.0131 -0.0271 -0.0144
v  -0.0131 -0.0148 -0.0144
v  -0.0192 -0.0271 -0.0082
v  -0.0192 -0.0148 -0.0082
v  -0.0131 -0.0230 -0.0144
v  0.1103 -0.0230 0.1090
v  -0.0192 -0.0230 -0.0082
v  0.1042 -0.0230 0.1151
v  -0.0131 -0.0189 -0.0144
v  0.1103 -0.0189 0.1090
v  -0.0192 -0.0189 -0.0082
v  0.1042 -0.0189 0.1151
# 56 vertices

vn 0.6977 -0.6378 -0.3262
vn 0.5002 -0.7072 -0.4996
vn 0.7075 0.0000 -0.7067
vn 0.9059 0.0000 -0.4235
vn -0.3237 -0.6371 0.6995
vn -0.4199 0.0000 0.9076
vn -0.7075 0.0000 0.7067
vn -0.5004 -0.7070 0.4998
vn 0.5004 -0.7070 -0.4998
vn -0.5002 -0.7072 0.4996
vn 0.3171 -0.6354 -0.7041
vn 0.4107 0.0000 -0.9118
vn -0.9117 0.0000 0.4109
vn -0.7040 -0.6354 0.3173
vn 0.5002 0.7072 -0.4996
vn 0.6977 0.6378 -0.3262
vn -0.3237 0.6371 0.6995
vn -0.5004 0.7070 0.4998
vn 0.5004 0.7070 -0.4998
vn -0.5002 0.7072 0.4996
vn 0.3171 0.6354 -0.7041
vn -0.7040 0.6354 0.3173
vn 0.7353 -0.6230 0.2668
vn 0.0000 -1.0000 -0.0000
vn 0.7353 0.6230 0.2668
vn 0.0000 1.0000 -0.0000
vn 0.2695 -0.6237 0.7337
vn 0.2695 0.6237 0.7337
vn -0.2797 -0.6247 -0.7291
vn -0.2797 0.6247 -0.7291
vn -0.7305 -0.6259 -0.2732
vn -0.7305 0.6259 -0.2732
vn -0.3581 0.0000 -0.9337
vn 0.9400 0.0000 0.3411
vn -0.9366 0.0000 -0.3503
vn 0.3448 0.0000 0.9387
# 36 vertex normals

g block00020
usemtl ac3dmat12
s 1
f 79//79 80//80 81//81 82//82 
f 83//83 84//84 85//85 86//86 
f 80//80 87//87 88//81 81//81 
f 85//85 89//85 90//88 86//86 
f 91//89 92//90 88//81 87//87 
f 89//85 93//91 94//92 90//88 
f 95//82 82//82 81//81 96//81 
f 85//85 84//84 97//84 98//85 
f 88//81 99//81 96//81 81//81 
f 100//85 89//85 85//85 98//85 
f 88//81 92//90 101//90 99//81 
f 89//85 100//85 102//91 93//91 
f 95//82 96//81 103//93 104//94 
f 98//85 97//84 105//95 106//96 
f 99//81 107//97 103//93 96//81 
f 108//98 100//85 98//85 106//96 
f 107//97 99//81 101//90 109//99 
f 110//100 102//91 100//85 108//98 
f 79//79 111//101 112//102 80//80 
f 113//103 104//94 103//93 114//104 
f 115//102 112//102 111//101 116//105 
f 113//103 114//104 117//104 118//106 
f 116//105 83//83 86//86 115//102 
f 117//104 106//96 105//95 118//106 
f 80//80 112//102 119//102 87//87 
f 120//104 114//104 103//93 107//97 
f 112//102 115//102 121//102 119//102 
f 114//104 120//104 122//104 117//104 
f 115//102 86//86 90//88 121//102 
f 108//98 106//96 117//104 122//104 
f 91//89 87//87 119//102 123//107 
f 124//108 120//104 107//97 109//99 
f 119//102 121//102 125//109 123//107 
f 120//104 124//108 126//110 122//104 
f 94//92 125//109 121//102 90//88 
f 108//98 122//104 126//110 110//100 
f 127//111 92//90 91//89 123//107 
f 128//112 111//101 79//79 82//82 
f 127//111 123//107 125//109 129//113 
f 111//101 128//112 130//114 116//105 
f 125//109 94//92 93//91 129//113 
f 116//105 130//114 84//84 83//83 
f 92//90 127//111 131//111 101//90 
f 95//82 132//112 128//112 82//82 
f 129//113 133//113 131//111 127//111 
f 130//114 128//112 132//112 134//114 
f 129//113 93//91 102//91 133//113 
f 97//84 84//84 130//114 134//114 
f 131//111 124//108 109//99 101//90 
f 113//103 132//112 95//82 104//94 
f 131//111 133//113 126//110 124//108 
f 113//103 118//106 134//114 132//112 
f 102//91 110//100 126//110 133//113 
f 105//95 97//84 134//114 118//106 
# 54 polygons

#
# object block00019
#

v  0.0934 0.0362 0.1140
v  0.1069 0.0362 0.1151
v  0.1069 0.0403 0.1151
v  0.0934 0.0403 0.1140
v  -0.0165 0.0362 -0.0082
v  -0.0157 0.0362 0.0048
v  -0.0157 0.0403 0.0048
v  -0.0165 0.0403 -0.0082
v  0.1130 0.0403 0.1090
v  0.1130 0.0362 0.1090
v  -0.0104 0.0362 -0.0144
v  -0.0104 0.0403 -0.0144
v  0.1118 0.0362 0.0956
v  0.1118 0.0403 0.0956
v  0.0026 0.0403 -0.0136
v  0.0026 0.0362 -0.0136
v  0.0934 0.0321 0.1140
v  0.1069 0.0321 0.1151
v  -0.0165 0.0321 -0.0082
v  -0.0157 0.0321 0.0048
v  0.1130 0.0321 0.1090
v  -0.0104 0.0321 -0.0144
v  0.1118 0.0321 0.0956
v  0.0026 0.0321 -0.0136
v  0.0934 0.0280 0.1140
v  0.1069 0.0280 0.1151
v  -0.0165 0.0280 -0.0082
v  -0.0157 0.0280 0.0048
v  0.1130 0.0280 0.1090
v  -0.0104 0.0280 -0.0144
v  0.1118 0.0280 0.0956
v  0.0026 0.0280 -0.0136
v  0.0185 0.0403 0.0390
v  0.0246 0.0403 0.0329
v  0.0246 0.0280 0.0329
v  0.0185 0.0280 0.0390
v  0.0307 0.0403 0.0268
v  0.0307 0.0280 0.0268
v  0.0369 0.0403 0.0206
v  0.0369 0.0280 0.0206
v  0.0596 0.0403 0.0802
v  0.0657 0.0403 0.0740
v  0.0657 0.0280 0.0740
v  0.0596 0.0280 0.0802
v  0.0719 0.0403 0.0679
v  0.0719 0.0280 0.0679
v  0.0780 0.0403 0.0618
v  0.0780 0.0280 0.0618
v  0.0185 0.0362 0.0390
v  0.0369 0.0362 0.0206
v  0.0596 0.0362 0.0802
v  0.0780 0.0362 0.0618
v  0.0185 0.0321 0.0390
v  0.0369 0.0321 0.0206
v  0.0596 0.0321 0.0802
v  0.0780 0.0321 0.0618
# 56 vertices

vn -0.4199 0.0000 0.9076
vn 0.3448 0.0000 0.9387
vn 0.2695 0.6237 0.7337
vn -0.3237 0.6371 0.6995
vn -0.9366 0.0000 -0.3503
vn -0.9117 0.0000 0.4109
vn -0.7040 0.6354 0.3173
vn -0.7305 0.6259 -0.2732
vn 0.7353 0.6230 0.2668
vn 0.9400 0.0000 0.3411
vn -0.3579 0.0000 -0.9338
vn -0.2795 0.6246 -0.7292
vn 0.9059 0.0000 -0.4235
vn 0.6977 0.6378 -0.3262
vn 0.3167 0.6355 -0.7041
vn 0.4102 0.0000 -0.9120
vn -0.3237 -0.6371 0.6995
vn 0.2695 -0.6237 0.7337
vn -0.7305 -0.6259 -0.2732
vn -0.7040 -0.6354 0.3173
vn 0.7353 -0.6230 0.2668
vn -0.2795 -0.6246 -0.7292
vn 0.6977 -0.6378 -0.3262
vn 0.3167 -0.6355 -0.7041
vn -0.5002 0.7072 0.4996
vn 0.0000 1.0000 -0.0000
vn 0.0000 -1.0000 -0.0000
vn -0.5002 -0.7072 0.4996
vn 0.5002 0.7068 -0.5003
vn 0.5002 -0.7068 -0.5003
vn -0.5004 0.7070 0.4998
vn -0.5004 -0.7070 0.4998
vn 0.5002 0.7072 -0.4996
vn 0.5002 -0.7072 -0.4996
vn -0.7075 0.0000 0.7067
vn 0.7070 0.0000 -0.7072
vn 0.7075 0.0000 -0.7067
# 37 vertex normals

g block00019
usemtl ac3dmat12
s 1
f 135//115 136//116 137//117 138//118 
f 139//119 140//120 141//121 142//122 
f 143//123 137//117 136//116 144//124 
f 145//125 139//119 142//122 146//126 
f 147//127 148//128 143//123 144//124 
f 145//125 146//126 149//129 150//130 
f 151//115 152//116 136//116 135//115 
f 153//119 154//120 140//120 139//119 
f 152//116 155//124 144//124 136//116 
f 153//119 139//119 145//125 156//125 
f 157//127 147//127 144//124 155//124 
f 150//130 158//130 156//125 145//125 
f 151//115 159//131 160//132 152//116 
f 153//119 161//133 162//134 154//120 
f 163//135 155//124 152//116 160//132 
f 153//119 156//125 164//136 161//133 
f 157//127 155//124 163//135 165//137 
f 166//138 164//136 156//125 158//130 
f 142//122 141//121 167//139 168//140 
f 169//141 170//142 162//134 161//133 
f 171//140 146//126 142//122 168//140 
f 164//136 172//141 169//141 161//133 
f 171//140 173//143 149//129 146//126 
f 172//141 164//136 166//138 174//144 
f 167//139 175//145 176//140 168//140 
f 169//141 177//141 178//146 170//142 
f 176//140 179//140 171//140 168//140 
f 177//141 169//141 172//141 180//141 
f 173//143 171//140 179//140 181//147 
f 172//141 174//144 182//148 180//141 
f 175//145 138//118 137//117 176//140 
f 178//146 177//141 160//132 159//131 
f 137//117 143//123 179//140 176//140 
f 177//141 180//141 163//135 160//132 
f 179//140 143//123 148//128 181//147 
f 180//141 182//148 165//137 163//135 
f 140//120 183//149 167//139 141//121 
f 150//130 149//129 173//143 184//150 
f 185//149 175//145 167//139 183//149 
f 184//150 173//143 181//147 186//151 
f 175//145 185//149 135//115 138//118 
f 186//151 181//147 148//128 147//127 
f 154//120 187//149 183//149 140//120 
f 184//150 188//150 158//130 150//130 
f 183//149 187//149 189//149 185//149 
f 188//150 184//150 186//151 190//151 
f 151//115 135//115 185//149 189//149 
f 157//127 190//151 186//151 147//127 
f 187//149 154//120 162//134 170//142 
f 174//144 166//138 158//130 188//150 
f 178//146 189//149 187//149 170//142 
f 190//151 182//148 174//144 188//150 
f 178//146 159//131 151//115 189//149 
f 182//148 190//151 157//127 165//137 
# 54 polygons

