# 3ds Max Wavefront OBJ Exporter v0.97b - (c)2007 guruware
# File Created: 07.10.2013 19:50:53

mtllib f5.mtl

#
# object sphere0000
#

v  -0.0038 0.0152 0.2766
v  -0.0058 0.0206 0.2766
v  -0.0112 0.0251 0.2844
v  -0.0065 0.0152 0.2873
v  -0.0449 0.0096 0.2766
v  -0.0415 0.0038 0.2873
v  -0.0415 0.0152 0.2873
v  -0.0442 0.0152 0.2766
v  -0.0341 0.0038 0.2951
v  -0.0341 0.0152 0.2951
v  -0.0292 0.0286 0.2861
v  -0.0240 0.0205 0.2957
v  -0.0240 0.0286 0.2876
v  -0.0187 0.0286 0.2861
v  -0.0240 0.0095 0.2987
v  -0.0344 0.0286 0.2765
v  -0.0388 0.0251 0.2766
v  -0.0368 0.0251 0.2844
v  -0.0092 0.0251 0.2766
v  -0.0135 0.0286 0.2765
v  -0.0065 0.0038 0.2873
v  -0.0139 0.0152 0.2951
v  -0.0030 0.0096 0.2766
v  -0.0149 0.0205 0.2931
v  -0.0442 0.0039 0.2766
v  -0.0368 -0.0060 0.2845
v  -0.0330 0.0205 0.2931
v  -0.0330 -0.0015 0.2932
v  -0.0240 0.0038 0.2980
v  -0.0139 0.0038 0.2951
v  -0.0112 -0.0060 0.2845
v  -0.0240 0.0316 0.2765
v  -0.0294 0.0308 0.2765
v  -0.0038 0.0039 0.2766
v  -0.0388 -0.0060 0.2766
v  -0.0421 -0.0014 0.2766
v  -0.0149 -0.0015 0.2932
v  -0.0240 -0.0060 0.2923
v  -0.0187 -0.0095 0.2862
v  -0.0092 -0.0060 0.2766
v  -0.0058 -0.0014 0.2766
v  -0.0292 -0.0095 0.2862
v  -0.0186 0.0308 0.2765
v  -0.0344 -0.0095 0.2766
v  -0.0330 -0.0095 0.2822
v  -0.0421 0.0206 0.2766
v  -0.0135 -0.0095 0.2766
v  -0.0294 -0.0117 0.2767
v  -0.0240 -0.0124 0.2767
v  -0.0186 -0.0117 0.2767
# 50 vertices

vn 0.9232 0.2709 0.2725
vn 0.8454 0.3991 0.3550
vn 0.6277 0.6713 0.3940
vn 0.3970 0.2173 0.8917
vn -0.9650 0.0012 0.2623
vn -0.8497 -0.2419 0.4685
vn -0.8390 0.2461 0.4853
vn -0.9427 0.2338 0.2379
vn -0.4707 -0.1954 0.8604
vn -0.4554 0.1807 0.8717
vn -0.2886 0.8373 0.4644
vn -0.0007 0.4929 0.8701
vn -0.0013 0.8993 0.4374
vn 0.3002 0.8356 0.4601
vn -0.0668 0.0778 0.9947
vn -0.4469 0.8662 0.2237
vn -0.7333 0.6417 0.2247
vn -0.6334 0.6647 0.3962
vn 0.6809 0.6986 0.2201
vn 0.4812 0.8224 0.3036
vn 0.7687 -0.2975 0.5662
vn 0.5594 0.2175 0.7998
vn 0.9521 -0.0575 0.3003
vn 0.4392 0.5710 0.6935
vn -0.9191 -0.2865 0.2705
vn -0.6679 -0.6447 0.3717
vn -0.4431 0.5902 0.6748
vn -0.3749 -0.5444 0.7504
vn -0.0630 -0.2873 0.9558
vn 0.6913 -0.1792 0.7000
vn 0.6567 -0.6245 0.4227
vn -0.0015 0.9583 0.2856
vn 0.0000 0.0000 1.0000
vn 0.8011 -0.1801 0.5708
vn -0.7565 -0.6114 0.2321
vn 0.8389 -0.4489 0.3077
vn -0.0177 -0.7779 0.6282
vn 0.2269 -0.8385 0.4954
vn 0.7586 -0.6069 0.2371
vn -0.2002 -0.8522 0.4833
vn -0.5284 -0.8385 0.1328
vn -0.4262 -0.8699 0.2482
vn -0.8243 0.4855 0.2913
vn 0.4524 -0.8630 0.2249
vn -0.2103 -0.9474 0.2413
vn 0.0346 -0.9610 0.2743
vn -0.0084 0.0649 0.9979
# 47 vertex normals

g sphere0000
usemtl ac3dmat12
s 1
f 1//1 2//2 3//3 4//4 
f 5//5 6//6 7//7 8//8 
f 9//9 10//10 7//7 6//6 
f 11//11 12//12 13//13 14//14 
f 12//12 10//10 9//9 15//15 
f 16//16 17//17 18//18 11//11 
f 19//19 20//20 14//14 3//3 
f 21//21 4//4 3//3 22//22 
f 23//23 1//1 4//4 21//21 
f 3//3 14//14 12//12 24//24 
f 25//25 26//26 6//6 5//5 
f 18//18 7//7 10//10 27//27 
f 12//12 11//11 18//18 27//27 
f 15//15 9//9 28//28 29//29 
f 15//15 22//22 24//24 12//12 
f 15//15 29//29 30//30 22//22 
f 22//22 30//30 31//31 21//21 
f 32//32 33//33 16//16 11//11 
f 31//31 34//34 23//23 21//21 
f 35//35 26//26 25//25 36//33 
f 28//28 9//9 6//6 26//26 
f 14//14 13//13 12//12 
f 37//36 30//30 29//29 38//37 
f 30//30 37//36 39//38 31//31 
f 34//34 31//31 40//39 41//33 
f 32//32 11//11 14//14 
f 42//40 38//37 29//29 28//28 
f 19//19 3//3 2//2 
f 42//40 39//38 37//36 38//37 
f 32//32 14//14 20//20 43//33 
f 44//41 45//42 26//26 35//35 
f 26//26 45//42 42//40 28//28 
f 22//22 3//3 24//24 
f 7//7 18//18 17//17 46//43 
f 31//31 39//38 47//44 40//39 
f 48//45 49//46 45//42 44//41 
f 42//40 45//42 49//46 39//38 
f 7//7 46//43 8//8 
f 10//10 12//12 27//27 
f 49//46 50//47 47//44 39//38 
# 34 polygons - 6 triangles

#
# object cylinder29
#

v  -0.0248 -0.0323 0.1069
v  -0.0248 0.0462 0.1069
v  -0.0271 0.0462 0.1095
v  -0.0271 -0.0323 0.1095
v  -0.0303 0.0462 0.1104
v  -0.0303 -0.0323 0.1104
v  -0.0335 0.0462 0.1095
v  -0.0335 -0.0323 0.1095
v  -0.0358 0.0462 0.1069
v  -0.0358 -0.0323 0.1069
v  -0.0367 -0.0323 0.1035
v  -0.0367 0.0462 0.1035
v  -0.0358 0.0462 0.1000
v  -0.0358 -0.0323 0.1000
v  -0.0335 -0.0323 0.0974
v  -0.0335 0.0462 0.0974
v  -0.0303 0.0462 0.0965
v  -0.0303 -0.0323 0.0965
v  -0.0271 -0.0323 0.0974
v  -0.0271 0.0462 0.0974
v  -0.0248 0.0462 0.1000
v  -0.0248 -0.0323 0.1000
v  -0.0239 -0.0323 0.1035
v  -0.0239 0.0462 0.1035
v  -0.0303 0.0462 0.1035
v  -0.0303 -0.0323 0.1035
# 26 vertices

vn 0.6633 -0.6587 0.3551
vn 0.6633 0.6587 0.3551
vn 0.4045 0.6487 0.6446
vn 0.4045 -0.6487 0.6446
vn -0.0000 0.6509 0.7591
vn -0.0000 -0.6509 0.7591
vn -0.4045 0.6487 0.6446
vn -0.4045 -0.6487 0.6446
vn -0.6633 0.6587 0.3551
vn -0.6633 -0.6587 0.3551
vn -0.7561 -0.6544 0.0027
vn -0.7561 0.6544 0.0027
vn -0.6651 0.6580 -0.3530
vn -0.6651 -0.6580 -0.3530
vn -0.4045 -0.6487 -0.6446
vn -0.4045 0.6487 -0.6446
vn -0.0000 0.6509 -0.7591
vn -0.0000 -0.6509 -0.7591
vn 0.4045 -0.6487 -0.6446
vn 0.4045 0.6487 -0.6446
vn 0.6651 0.6580 -0.3530
vn 0.6651 -0.6580 -0.3530
vn 0.7561 -0.6544 0.0027
vn 0.7561 0.6544 0.0027
vn 0.0000 1.0000 -0.0000
vn 0.0000 -1.0000 -0.0000
# 26 vertex normals

g cylinder29
usemtl ac3dmat2
s 1
f 51//48 52//49 53//50 54//51 
f 54//51 53//50 55//52 56//53 
f 56//53 55//52 57//54 58//55 
f 58//55 57//54 59//56 60//57 
f 61//58 60//57 59//56 62//59 
f 62//59 63//60 64//61 61//58 
f 65//62 64//61 63//60 66//63 
f 66//63 67//64 68//65 65//62 
f 69//66 68//65 67//64 70//67 
f 69//66 70//67 71//68 72//69 
f 73//70 72//69 71//68 74//71 
f 73//70 74//71 52//49 51//48 
f 52//49 75//72 55//52 53//50 
f 59//56 57//54 55//52 75//72 
f 62//59 59//56 75//72 63//60 
f 67//64 66//63 63//60 75//72 
f 71//68 70//67 67//64 75//72 
f 75//72 52//49 74//71 71//68 
f 54//51 76//73 73//70 51//48 
f 58//55 76//73 54//51 56//53 
f 58//55 60//57 61//58 76//73 
f 64//61 65//62 76//73 61//58 
f 69//66 76//73 65//62 68//65 
f 69//66 72//69 73//70 76//73 
# 24 polygons

#
# object cylinder28
#

v  0.0055 -0.0332 -0.0034
v  0.0064 -0.0332 -0.0000
v  0.0055 -0.0332 0.0035
v  0.0000 -0.0332 -0.0000
v  0.0000 -0.0332 -0.0069
v  0.0032 -0.0332 -0.0060
v  -0.0055 -0.0332 -0.0034
v  -0.0032 -0.0332 -0.0060
v  -0.0055 -0.0332 0.0035
v  -0.0064 -0.0332 -0.0000
v  0.0000 -0.0332 0.0070
v  -0.0032 -0.0332 0.0061
v  0.0032 -0.0332 0.0061
v  0.0064 0.0473 -0.0000
v  0.0000 0.0473 -0.0000
v  0.0032 0.0473 0.0061
v  0.0055 0.0473 0.0035
v  0.0055 0.0473 -0.0034
v  0.0032 0.0473 -0.0060
v  0.0000 0.0473 -0.0069
v  -0.0032 0.0473 -0.0060
v  -0.0055 0.0473 -0.0034
v  -0.0064 0.0473 -0.0000
v  -0.0055 0.0473 0.0035
v  -0.0032 0.0473 0.0061
v  0.0000 0.0473 0.0070
# 26 vertices

vn 0.6633 -0.6587 -0.3551
vn 0.7561 -0.6545 -0.0027
vn 0.6651 -0.6580 0.3530
vn 0.0000 -1.0000 -0.0000
vn 0.0000 -0.6509 -0.7591
vn 0.4045 -0.6487 -0.6446
vn -0.6633 -0.6587 -0.3551
vn -0.4045 -0.6487 -0.6446
vn -0.6651 -0.6580 0.3530
vn -0.7561 -0.6545 -0.0027
vn 0.0000 -0.6509 0.7591
vn -0.4045 -0.6487 0.6446
vn 0.4045 -0.6487 0.6446
vn 0.7561 0.6545 -0.0027
vn 0.0000 1.0000 -0.0000
vn 0.4045 0.6487 0.6446
vn 0.6651 0.6580 0.3530
vn 0.6633 0.6587 -0.3551
vn 0.4045 0.6487 -0.6446
vn 0.0000 0.6509 -0.7591
vn -0.4045 0.6487 -0.6446
vn -0.6633 0.6587 -0.3551
vn -0.7561 0.6545 -0.0027
vn -0.6651 0.6580 0.3530
vn -0.4045 0.6487 0.6446
vn 0.0000 0.6509 0.7591
# 26 vertex normals

g cylinder28
usemtl ac3dmat2
s 1
f 77//74 78//75 79//76 80//77 
f 81//78 82//79 77//74 80//77 
f 83//80 84//81 81//78 80//77 
f 85//82 86//83 83//80 80//77 
f 87//84 88//85 85//82 80//77 
f 79//76 89//86 87//84 80//77 
f 90//87 91//88 92//89 93//90 
f 90//87 94//91 95//92 91//88 
f 95//92 96//93 97//94 91//88 
f 97//94 98//95 99//96 91//88 
f 99//96 100//97 101//98 91//88 
f 92//89 91//88 101//98 102//99 
f 93//90 79//76 78//75 90//87 
f 77//74 94//91 90//87 78//75 
f 82//79 95//92 94//91 77//74 
f 81//78 96//93 95//92 82//79 
f 84//81 97//94 96//93 81//78 
f 97//94 84//81 83//80 98//95 
f 98//95 83//80 86//83 99//96 
f 85//82 100//97 99//96 86//83 
f 100//97 85//82 88//85 101//98 
f 101//98 88//85 87//84 102//99 
f 89//86 92//89 102//99 87//84 
f 79//76 93//90 92//89 89//86 
# 24 polygons

#
# object cylinder27
#

v  -0.0051 0.0206 0.1199
v  -0.0131 0.0286 0.1199
v  -0.0131 0.0286 0.2765
v  -0.0051 0.0206 0.2765
v  -0.0241 0.0316 0.2765
v  -0.0241 0.0316 0.1199
v  -0.0351 0.0286 0.2765
v  -0.0351 0.0286 0.1199
v  -0.0432 0.0206 0.1199
v  -0.0432 0.0206 0.2765
v  -0.0461 0.0096 0.1199
v  -0.0461 0.0096 0.2765
v  -0.0432 -0.0015 0.1199
v  -0.0432 -0.0015 0.2765
v  -0.0351 -0.0095 0.1199
v  -0.0351 -0.0095 0.2765
v  -0.0241 -0.0125 0.2765
v  -0.0241 -0.0125 0.1199
v  -0.0131 -0.0095 0.2765
v  -0.0131 -0.0095 0.1199
v  -0.0051 -0.0015 0.1199
v  -0.0051 -0.0015 0.2765
v  -0.0021 0.0096 0.1199
v  -0.0021 0.0096 0.2765
v  -0.0241 0.0096 0.1199
v  -0.0241 0.0096 0.2765
# 26 vertices

vn 0.6546 0.3799 -0.6536
vn 0.3799 0.6546 -0.6536
vn 0.3799 0.6546 0.6536
vn 0.6546 0.3799 0.6536
vn -0.0000 0.7579 0.6524
vn -0.0000 0.7579 -0.6524
vn -0.3776 0.6553 0.6542
vn -0.3776 0.6553 -0.6542
vn -0.6560 0.3797 -0.6523
vn -0.6560 0.3797 0.6523
vn -0.7563 0.0008 -0.6542
vn -0.7563 0.0008 0.6542
vn -0.6566 -0.3791 -0.6521
vn -0.6566 -0.3791 0.6521
vn -0.3776 -0.6553 -0.6542
vn -0.3776 -0.6553 0.6542
vn -0.0000 -0.7579 0.6524
vn -0.0000 -0.7579 -0.6524
vn 0.3799 -0.6546 0.6536
vn 0.3799 -0.6546 -0.6536
vn 0.6552 -0.3792 -0.6534
vn 0.6552 -0.3792 0.6534
vn 0.7577 0.0009 -0.6526
vn 0.7577 0.0009 0.6526
vn 0.0000 0.0000 -1.0000
vn 0.0000 0.0000 1.0000
# 26 vertex normals

g cylinder27
usemtl ac3dmat12
s 1
f 103//100 104//101 105//102 106//103 
f 107//104 105//102 104//101 108//105 
f 109//106 107//104 108//105 110//107 
f 110//107 111//108 112//109 109//106 
f 112//109 111//108 113//110 114//111 
f 115//112 116//113 114//111 113//110 
f 116//113 115//112 117//114 118//115 
f 119//116 118//115 117//114 120//117 
f 121//118 119//116 120//117 122//119 
f 121//118 122//119 123//120 124//121 
f 123//120 125//122 126//123 124//121 
f 103//100 106//103 126//123 125//122 
f 103//100 127//124 108//105 104//101 
f 111//108 110//107 108//105 127//124 
f 127//124 115//112 113//110 111//108 
f 115//112 127//124 120//117 117//114 
f 123//120 122//119 120//117 127//124 
f 123//120 127//124 103//100 125//122 
f 105//102 128//125 126//123 106//103 
f 109//106 128//125 105//102 107//104 
f 109//106 112//109 114//111 128//125 
f 116//113 118//115 128//125 114//111 
f 121//118 128//125 118//115 119//116 
f 121//118 124//121 126//123 128//125 
# 24 polygons

#
# object block00036
#

v  -0.0158 0.0009 0.0793
v  0.0023 0.0009 0.0842
v  -0.0051 0.0009 0.1310
v  -0.0280 0.0009 0.1249
v  -0.0158 0.0139 0.0793
v  -0.0280 0.0139 0.1249
v  -0.0051 0.0139 0.1310
v  0.0023 0.0139 0.0842
v  -0.0036 0.0009 0.0338
v  0.0113 0.0009 0.0378
v  0.0113 0.0139 0.0378
v  -0.0036 0.0139 0.0338
v  0.0086 0.0009 -0.0117
v  0.0170 0.0009 0.0037
v  0.0170 0.0139 0.0037
v  0.0086 0.0139 -0.0117
v  -0.0429 0.0009 0.1209
v  -0.0307 0.0009 0.0754
v  -0.0307 0.0139 0.0754
v  -0.0429 0.0139 0.1209
v  -0.0185 0.0009 0.0298
v  -0.0185 0.0139 0.0298
v  -0.0063 0.0009 -0.0157
v  -0.0063 0.0139 -0.0157
v  -0.0577 0.0009 0.1169
v  -0.0455 0.0009 0.0714
v  -0.0455 0.0139 0.0714
v  -0.0577 0.0139 0.1169
v  -0.0333 0.0009 0.0258
v  -0.0333 0.0139 0.0258
v  -0.0221 0.0009 -0.0035
v  -0.0221 0.0139 -0.0035
v  -0.0051 0.0095 0.1310
v  0.0023 0.0095 0.0842
v  -0.0455 0.0095 0.0714
v  -0.0577 0.0095 0.1169
v  0.0113 0.0095 0.0378
v  -0.0333 0.0095 0.0258
v  0.0170 0.0095 0.0037
v  -0.0221 0.0095 -0.0035
v  -0.0051 0.0052 0.1310
v  0.0023 0.0052 0.0842
v  -0.0577 0.0052 0.1169
v  -0.0455 0.0052 0.0714
v  0.0113 0.0052 0.0378
v  -0.0333 0.0052 0.0258
v  0.0170 0.0052 0.0037
v  -0.0221 0.0052 -0.0035
v  -0.0280 0.0095 0.1249
v  0.0086 0.0095 -0.0117
v  -0.0280 0.0052 0.1249
v  0.0086 0.0052 -0.0117
v  -0.0429 0.0095 0.1209
v  -0.0063 0.0095 -0.0157
v  -0.0429 0.0052 0.1209
v  -0.0063 0.0052 -0.0157
# 56 vertices

vn 0.0000 -1.0000 -0.0000
vn 0.6925 -0.7110 0.1219
vn 0.4473 -0.5721 0.6875
vn -0.1827 -0.7069 0.6833
vn 0.0000 1.0000 -0.0000
vn -0.1827 0.7069 0.6833
vn 0.4473 0.5721 0.6875
vn 0.6925 0.7110 0.1219
vn 0.6987 -0.7042 0.1261
vn 0.6987 0.7042 0.1261
vn 0.4812 -0.6283 -0.6113
vn 0.7573 -0.6405 -0.1276
vn 0.7573 0.6405 -0.1276
vn 0.4812 0.6283 -0.6113
vn -0.1840 -0.7069 0.6830
vn -0.1840 0.7069 0.6830
vn -0.1541 -0.6195 -0.7697
vn -0.1541 0.6195 -0.7697
vn -0.7075 -0.5775 0.4074
vn -0.6830 -0.7072 -0.1829
vn -0.6830 0.7072 -0.1829
vn -0.7075 0.5775 0.4074
vn -0.6834 -0.6956 -0.2214
vn -0.6834 0.6956 -0.2214
vn -0.6092 -0.6510 -0.4528
vn -0.6092 0.6510 -0.4528
vn 0.5454 0.0000 0.8382
vn 0.9849 0.0000 0.1733
vn -0.9660 0.0000 -0.2587
vn -0.8666 0.0000 0.4990
vn 0.9841 0.0000 0.1777
vn -0.9513 0.0000 -0.3082
vn 0.9861 0.0000 -0.1661
vn -0.8026 0.0000 -0.5965
vn -0.2583 0.0000 0.9661
vn 0.6185 0.0000 -0.7858
vn -0.2601 0.0000 0.9656
vn -0.1963 0.0000 -0.9805
# 38 vertex normals

g block00036
usemtl ac3dmat12
s 1
f 129//126 130//127 131//128 132//129 
f 133//130 134//131 135//132 136//133 
f 129//126 137//126 138//134 130//127 
f 133//130 136//133 139//135 140//130 
f 141//136 142//137 138//134 137//126 
f 143//138 144//139 140//130 139//135 
f 129//126 132//129 145//140 146//126 
f 147//130 148//141 134//131 133//130 
f 146//126 149//126 137//126 129//126 
f 140//130 150//130 147//130 133//130 
f 151//142 141//136 137//126 149//126 
f 140//130 144//139 152//143 150//130 
f 145//140 153//144 154//145 146//126 
f 147//130 155//146 156//147 148//141 
f 149//126 146//126 154//145 157//148 
f 158//149 155//146 147//130 150//130 
f 159//150 151//142 149//126 157//148 
f 160//151 158//149 150//130 152//143 
f 136//133 135//132 161//152 162//153 
f 155//146 163//154 164//155 156//147 
f 136//133 162//153 165//156 139//135 
f 163//154 155//146 158//149 166//157 
f 165//156 167//158 143//138 139//135 
f 166//157 158//149 160//151 168//159 
f 161//152 169//152 170//153 162//153 
f 171//155 164//155 163//154 172//154 
f 165//156 162//153 170//153 173//156 
f 163//154 166//157 174//157 172//154 
f 173//156 175//158 167//158 165//156 
f 176//159 174//157 166//157 168//159 
f 170//153 169//152 131//128 130//127 
f 154//145 153//144 171//155 172//154 
f 130//127 138//134 173//156 170//153 
f 157//148 154//145 172//154 174//157 
f 173//156 138//134 142//137 175//158 
f 159//150 157//148 174//157 176//159 
f 177//160 161//152 135//132 134//131 
f 144//139 143//138 167//158 178//161 
f 161//152 177//160 179//160 169//152 
f 178//161 167//158 175//158 180//161 
f 131//128 169//152 179//160 132//129 
f 142//137 141//136 180//161 175//158 
f 148//141 181//162 177//160 134//131 
f 152//143 144//139 178//161 182//163 
f 177//160 181//162 183//162 179//160 
f 182//163 178//161 180//161 184//163 
f 179//160 183//162 145//140 132//129 
f 151//142 184//163 180//161 141//136 
f 181//162 148//141 156//147 164//155 
f 168//159 160//151 152//143 182//163 
f 181//162 164//155 171//155 183//162 
f 184//163 176//159 168//159 182//163 
f 171//155 153//144 145//140 183//162 
f 176//159 184//163 151//142 159//150 
# 54 polygons

